<svg xmlns="http://www.w3.org/2000/svg" width="36" height="41" viewBox="0 0 36 41"><g><g><g><path fill="#f7f8f9" d="M15.695 30.448V9.846H18.6v20.602z"/></g><g><path fill="#f7f8f9" d="M32.302 32.103v6.174H3.032v-6.174c0-.914.737-1.655 1.652-1.655H30.65c.914 0 1.652.741 1.652 1.655z"/></g><g><path fill="#f7f8f9" d="M35.332 39.17v.01a.97.97 0 0 1-.966.966H.968A.97.97 0 0 1 0 39.179v-.01a.97.97 0 0 1 .967-.969h33.398a.97.97 0 0 1 .966.97z"/></g><g><path fill="#f7f8f9" d="M29.282 30.532v.01h-5.807v-.01a2.04 2.04 0 0 1 2.032-2.032h1.742a2.04 2.04 0 0 1 2.033 2.032z"/></g><g><path fill="#f7f8f9" d="M11.01 30.532v.01H5.201v-.01c0-1.118.915-2.032 2.033-2.032h1.742a2.04 2.04 0 0 1 2.032 2.032z"/></g><g><g><path fill="#f7f8f9" d="M21.823 29.716v.009a.726.726 0 0 1-.726.723h-7.898a.726.726 0 0 1-.726-.723v-.01c0-.398.328-.722.726-.722h7.898c.398 0 .726.324.726.723z"/></g><g><path fill="#f7f8f9" d="M20.003 27.803v.01a.726.726 0 0 1-.726.722h-4.259a.726.726 0 0 1-.726-.723v-.009c0-.398.328-.723.726-.723h4.26c.398 0 .725.325.725.723z"/></g></g><g opacity=".3"><path fill="#f7f8f9" d="M10.011 31.016h-4.98s-1.081-.039-1.197 1.39c-.116 1.428 0 5.598 0 5.598s.348-4.594 1.368-5.946c.518-.685 4.81-1.042 4.81-1.042z"/></g><g><path fill="#f7f8f9" d="M15.695 13.253v1.856s.754.522 1.972.373V26.08h.934V13.253z"/></g><g><path fill="#f7f8f9" d="M10.58 6.847c0 .176.006.352.021.525.022.285.062.563.12.834a6.579 6.579 0 0 0 6.424 5.21h.004a6.571 6.571 0 0 0 6.567-6.57c0-3.628-2.94-6.568-6.567-6.568h-.003c-.216 0-.43.012-.636.03-.232.022-.46.056-.683.106-.157.03-.312.068-.463.11a6.569 6.569 0 0 0-4.784 6.323z"/></g><g><path fill="#f7f8f9" d="M10.58 6.847c0 .176.006.352.021.525.022.285.062.563.12.834.022.12.053.238.084.356a5.12 5.12 0 0 0 3.793 1.67 5.119 5.119 0 0 0 2.548-.676 5.14 5.14 0 0 0 2.598-4.47A5.14 5.14 0 0 0 16.51.31c-.232.021-.46.055-.683.105-.157.03-.312.068-.463.11a6.569 6.569 0 0 0-4.784 6.323z"/></g><g><path fill="#f7f8f9" d="M10.58 6.847c0 .176.006.352.021.525.022.285.062.563.12.834 2.172.54 4.55-.262 5.554-2.035 1.795-3.172.164-5.167-.448-5.757-.157.03-.312.068-.463.11a6.569 6.569 0 0 0-4.784 6.323z"/></g><g><path fill="#f7f8f9" d="M13.698 2.056c-1.099.684-2.52 2.05-2.436 4.512.008.23.339.27.396.047.284-1.117.914-2.796 2.291-4.252.163-.172-.05-.433-.25-.307z"/></g><g><path fill="#f7f8f9" d="M14.691 1.761a.261.261 0 1 1-.523 0 .261.261 0 0 1 .523 0z"/></g></g></g></svg>